# xmcd
#
# Track frame offsets:
#  150
#  24339
#  44433
#  53971
#  72856
#  92047
#  110646
#  119261
#  133934
#  155367
#  170807
#  184848
#  207685
#  230080
#  248887
#  269059
#  297577
#
# Disc length: 4242 seconds
#
# Revision: 0
# Processed by: cddbd v1.4PL0 Copyright (c) Steve Scherf et al.
# Submitted via: AltoMP3_Maker 3.0
#
DISCID=12109011
DTITLE=谢庭锋等 - 风靡亚洲男天后
DYEAR=1900
DGENRE=
TTITLE0=你不会了解
TTITLE1=真朋友
TTITLE2=记得怎么去爱
TTITLE3=当我想起你
TTITLE4=若有所失
TTITLE5=固定伙伴
TTITLE6=十月初五的月光
TTITLE7=全日爱
TTITLE8=爱不留
TTITLE9=猎人传说
TTITLE10=将自己给你
TTITLE11=不要再说爱我
TTITLE12=为什么你背着我爱别人
TTITLE13=奇迹
TTITLE14=比我幸福
TTITLE15=爱情宣言
TTITLE16=单身情歌
EXTD=
EXTT0=
EXTT1=
EXTT2=
EXTT3=
EXTT4=
EXTT5=
EXTT6=
EXTT7=
EXTT8=
EXTT9=
EXTT10=
EXTT11=
EXTT12=
EXTT13=
EXTT14=
EXTT15=
EXTT16=
PLAYORDER=
